<?xml version="1.0" encoding="UTF-8" standalone="no"?>
<!DOCTYPE svg PUBLIC "-//W3C//DTD SVG 1.1//EN" "http://www.w3.org/Graphics/SVG/1.1/DTD/svg11.dtd">
<svg width="100%" height="100%" viewBox="0 0 1199 898" version="1.1" xmlns="http://www.w3.org/2000/svg" xmlns:xlink="http://www.w3.org/1999/xlink" xml:space="preserve" xmlns:serif="http://www.serif.com/" style="fill-rule:evenodd;clip-rule:evenodd;stroke-linejoin:round;stroke-miterlimit:2;">
    <g transform="matrix(1,0,0,1,-1050.817708,-800.625373)">
        <g transform="matrix(4.166667,0,0,4.166667,0,0)">
            <g transform="matrix(1,0,0,1,252.19625,350.66319)">
                <path d="M0,-153.674L0,0C0,2.672 2.166,4.839 4.839,4.839L28.143,4.839C30.815,4.839 32.982,2.672 32.982,0L32.982,-119.643C32.982,-122.316 35.148,-124.482 37.82,-124.482L96.987,-124.482C99.659,-124.482 101.826,-122.316 101.826,-119.643L101.826,0C101.826,2.672 103.992,4.839 106.664,4.839L129.969,4.839C132.641,4.839 134.807,2.672 134.807,0L134.807,-153.674C134.807,-156.346 132.641,-158.513 129.969,-158.513L4.839,-158.513C2.166,-158.513 0,-156.346 0,-153.674" style="fill-rule:nonzero;"/>
            </g>
        </g>
        <g transform="matrix(4.166667,0,0,4.166667,0,0)">
            <g transform="matrix(1,0,0,1,408.53495,321.47109)">
                <path d="M0,-95.29L42.515,-95.29C45.188,-95.29 47.354,-93.124 47.354,-90.451L47.354,29.192C47.354,31.865 49.52,34.031 52.193,34.031L75.497,34.031C78.169,34.031 80.335,31.865 80.335,29.192L80.335,-124.482C80.335,-127.154 78.169,-129.321 75.497,-129.321L0,-129.321C-1.88,-129.321 -3.405,-127.796 -3.405,-125.916L-3.405,-98.695C-3.405,-96.814 -1.88,-95.29 0,-95.29" style="fill-rule:nonzero;"/>
            </g>
        </g>
        <g transform="matrix(4.166667,0,0,4.166667,0,0)">
            <g transform="matrix(1,0,0,1,539.80375,249.14899)">
                <path d="M0,153.674L0,0C0,-2.672 -2.166,-4.839 -4.839,-4.839L-28.143,-4.839C-30.815,-4.839 -32.982,-2.672 -32.982,0L-32.982,119.643C-32.982,122.316 -35.148,124.482 -37.82,124.482L-96.987,124.482C-99.659,124.482 -101.826,122.316 -101.826,119.643L-101.826,0C-101.826,-2.672 -103.992,-4.839 -106.664,-4.839L-129.969,-4.839C-132.641,-4.839 -134.807,-2.672 -134.807,0L-134.807,153.674C-134.807,156.346 -132.641,158.513 -129.969,158.513L-4.839,158.513C-2.166,158.513 0,156.346 0,153.674" style="fill:rgb(29,110,71);fill-rule:nonzero;"/>
            </g>
        </g>
        <g transform="matrix(4.166667,0,0,4.166667,0,0)">
            <g transform="matrix(1,0,0,1,383.46505,278.34099)">
                <path d="M0,95.29L-42.515,95.29C-45.188,95.29 -47.354,93.124 -47.354,90.451L-47.354,-29.192C-47.354,-31.865 -49.52,-34.031 -52.193,-34.031L-75.497,-34.031C-78.169,-34.031 -80.335,-31.865 -80.335,-29.192L-80.335,124.482C-80.335,127.154 -78.169,129.321 -75.497,129.321L0,129.321C1.88,129.321 3.405,127.796 3.405,125.916L3.405,98.695C3.405,96.814 1.88,95.29 0,95.29" style="fill:rgb(29,110,71);fill-rule:nonzero;"/>
            </g>
        </g>
        <g transform="matrix(4.166667,0,0,4.166667,0,0)">
            <g transform="matrix(1,0,0,1,252.19625,350.66319)">
                <path d="M0,-153.674L0,0C0,2.672 2.166,4.839 4.839,4.839L28.143,4.839C30.815,4.839 32.982,2.672 32.982,0L32.982,-119.643C32.982,-122.316 35.148,-124.482 37.82,-124.482L96.987,-124.482C99.659,-124.482 101.826,-122.316 101.826,-119.643L101.826,0C101.826,2.672 103.992,4.839 106.664,4.839L129.969,4.839C132.641,4.839 134.807,2.672 134.807,0L134.807,-153.674C134.807,-156.346 132.641,-158.513 129.969,-158.513L4.839,-158.513C2.166,-158.513 0,-156.346 0,-153.674" style="fill-rule:nonzero;"/>
            </g>
        </g>
        <g transform="matrix(4.166667,0,0,4.166667,0,0)">
            <g transform="matrix(1,0,0,1,408.53495,321.47109)">
                <path d="M0,-95.29L42.515,-95.29C45.188,-95.29 47.354,-93.124 47.354,-90.451L47.354,29.192C47.354,31.865 49.52,34.031 52.193,34.031L75.497,34.031C78.169,34.031 80.335,31.865 80.335,29.192L80.335,-124.482C80.335,-127.154 78.169,-129.321 75.497,-129.321L0,-129.321C-1.88,-129.321 -3.405,-127.796 -3.405,-125.916L-3.405,-98.695C-3.405,-96.814 -1.88,-95.29 0,-95.29" style="fill-rule:nonzero;"/>
            </g>
        </g>
        <g transform="matrix(4.166667,0,0,4.166667,0,0)">
            <g transform="matrix(1,0,0,1,539.80375,249.14899)">
                <path d="M0,153.674L0,0C0,-2.672 -2.166,-4.839 -4.839,-4.839L-28.143,-4.839C-30.815,-4.839 -32.982,-2.672 -32.982,0L-32.982,119.643C-32.982,122.316 -35.148,124.482 -37.82,124.482L-96.987,124.482C-99.659,124.482 -101.826,122.316 -101.826,119.643L-101.826,0C-101.826,-2.672 -103.992,-4.839 -106.664,-4.839L-129.969,-4.839C-132.641,-4.839 -134.807,-2.672 -134.807,0L-134.807,153.674C-134.807,156.346 -132.641,158.513 -129.969,158.513L-4.839,158.513C-2.166,158.513 0,156.346 0,153.674" style="fill:rgb(29,110,71);fill-rule:nonzero;"/>
            </g>
        </g>
        <g transform="matrix(4.166667,0,0,4.166667,0,0)">
            <g transform="matrix(1,0,0,1,383.46505,278.34099)">
                <path d="M0,95.29L-42.515,95.29C-45.188,95.29 -47.354,93.124 -47.354,90.451L-47.354,-29.192C-47.354,-31.865 -49.52,-34.031 -52.193,-34.031L-75.497,-34.031C-78.169,-34.031 -80.335,-31.865 -80.335,-29.192L-80.335,124.482C-80.335,127.154 -78.169,129.321 -75.497,129.321L0,129.321C1.88,129.321 3.405,127.796 3.405,125.916L3.405,98.695C3.405,96.814 1.88,95.29 0,95.29" style="fill:rgb(29,110,71);fill-rule:nonzero;"/>
            </g>
        </g>
    </g>
</svg>
